<svg width="32" height="32" viewBox="0 0 32 32" fill="none" xmlns="http://www.w3.org/2000/svg">
  <!-- Background Circle -->
  <circle cx="16" cy="16" r="16" fill="url(#gradient)" />
  
  <!-- Toy Block -->
  <rect x="8" y="10" width="8" height="8" rx="1" fill="#FFFFFF" opacity="0.9" />
  <rect x="16" y="10" width="8" height="8" rx="1" fill="#FFE4E1" opacity="0.8" />
  <rect x="8" y="18" width="8" height="6" rx="1" fill="#FFE4E1" opacity="0.8" />
  <rect x="16" y="18" width="8" height="6" rx="1" fill="#FFFFFF" opacity="0.9" />
  
  <!-- Toy Details -->
  <circle cx="12" cy="14" r="1.5" fill="#FF6B9D" />
  <circle cx="20" cy="14" r="1.5" fill="#8B5CF6" />
  <circle cx="12" cy="21" r="1.5" fill="#8B5CF6" />
  <circle cx="20" cy="21" r="1.5" fill="#FF6B9D" />
  
  <!-- Sparkles -->
  <path d="M6 8L7 6L8 8L7 10L6 8Z" fill="#FFD700" opacity="0.8" />
  <path d="M26 6L27 4L28 6L27 8L26 6Z" fill="#FFD700" opacity="0.8" />
  <path d="M4 24L5 22L6 24L5 26L4 24Z" fill="#FFD700" opacity="0.8" />
  <path d="M26 26L27 24L28 26L27 28L26 26Z" fill="#FFD700" opacity="0.8" />
  
  <!-- Gradient Definition -->
  <defs>
    <linearGradient id="gradient" x1="0%" y1="0%" x2="100%" y2="100%">
      <stop offset="0%" style="stop-color:#FF6B9D;stop-opacity:1" />
      <stop offset="50%" style="stop-color:#8B5CF6;stop-opacity:1" />
      <stop offset="100%" style="stop-color:#667EEA;stop-opacity:1" />
    </linearGradient>
  </defs>
</svg>
